<?xml version="1.0" standalone="no"?>
<!DOCTYPE svg PUBLIC "-//W3C//DTD SVG 20010904//EN"
 "http://www.w3.org/TR/2001/REC-SVG-20010904/DTD/svg10.dtd">
<svg version="1.0" xmlns="http://www.w3.org/2000/svg"
 width="1089.000000pt" height="1089.000000pt" viewBox="0 0 1089.000000 1089.000000"
 preserveAspectRatio="xMidYMid meet">
<metadata>
Created by potrace 1.14, written by Peter Selinger 2001-2017
</metadata>
<g transform="translate(0.000000,1089.000000) scale(0.100000,-0.100000)"
fill="#000000" stroke="none">
<path d="M2443 10430 c-383 -57 -697 -374 -754 -762 -60 -412 183 -823 573
-968 160 -59 -14 -54 2143 -60 l1970 -6 115 -28 c279 -69 499 -195 700 -402
195 -201 323 -444 386 -734 29 -131 26 -469 -4 -599 -67 -279 -184 -491 -382
-691 -230 -231 -454 -349 -790 -416 -78 -16 -265 -18 -2170 -23 l-2085 -6 -94
-33 c-137 -48 -223 -101 -321 -201 -126 -128 -196 -261 -225 -429 -23 -128
-22 -3757 0 -3885 32 -183 108 -323 254 -467 180 -179 375 -260 626 -260 405
0 738 249 862 646 l28 89 5 1370 5 1370 1555 6 c1655 6 1617 5 1880 54 675
127 1352 499 1802 988 520 567 794 1174 859 1907 17 198 7 606 -21 785 -89
583 -282 1034 -646 1505 -106 137 -419 454 -559 566 -399 318 -852 531 -1336
628 -312 63 -173 60 -2344 62 -1089 1 -2003 -2 -2032 -6z"/>
<path d="M8580 4483 c-396 -353 -893 -632 -1395 -784 -77 -23 -142 -43 -144
-45 -2 -1 14 -17 35 -35 66 -55 182 -180 244 -262 105 -138 190 -302 226 -440
49 -183 46 -143 54 -942 6 -730 8 -763 28 -841 44 -170 115 -287 255 -420 127
-121 242 -186 417 -236 72 -20 329 -16 415 6 160 42 309 131 431 257 110 115
171 216 216 359 l23 75 0 820 c0 883 0 886 -55 1165 -96 485 -295 920 -599
1308 -35 45 -67 82 -70 82 -3 0 -40 -30 -81 -67z"/>
</g>
</svg>
